5.Days.Of.War.2011.BDRip.XVID.AC3.HQ.Hive-CM8


Thx Hive


CM8 Doing It Right The First Time :D


Source Bluray

Video: 720x304 @bitrate 1800 2pass
Audio: English DTS to AC3 5.1 @448
Sample: yes included
Subs: yes english in srt /subs[/b]

 
http://www.imdb.com/title/tt1486193/


General
Complete name                    : 5.Days.Of.War.2011.BDRip.XVID.AC3.HQ.Hive-CM8.avi
Format                           : AVI
Format/Info                      : Audio Video Interleave
File size                        : 1.78 GiB
Duration                         : 1h 53mn
Overall bit rate                 : 2 257 Kbps
Writing application              : Nandub v1.0rc2
Writing library                  : Nandub build 1853/release

Video
ID                               : 0
Format                           : MPEG-4 Visual
Format profile                   : Advanced Simple@L5
Format settings, BVOP            : 1
Format settings, QPel            : Yes
Format settings, GMC             : No warppoints
Format settings, Matrix          : Default (H.263)
Muxing mode                      : Packed bitstream
Codec ID                         : XVID
Codec ID/Hint                    : XviD
Duration                         : 1h 53mn
Bit rate                         : 1 800 Kbps
Width                            : 720 pixels
Height                           : 304 pixels
Display aspect ratio             : 2.40:1
Frame rate                       : 23.976 fps
Color space                      : YUV
Chroma subsampling               : 4:2:0
Bit depth                        : 8 bits
Scan type                        : Progressive
Compression mode                 : Lossy
Bits/(Pixel*Frame)               : 0.343
Stream size                      : 1.42 GiB (80%)
Writing library                  : XviD 1.2.1 (UTC 2008-12-04)

Audio
ID                               : 1
Format                           : AC-3
Format/Info                      : Audio Coding 3
Mode extension                   : CM (complete main)
Codec ID                         : 2000
Duration                         : 1h 53mn
Bit rate mode                    : Constant
Bit rate                         : 448 Kbps
Channel(s)                       : 6 channels
Channel positions                : Front: L C R, Side: L R, LFE
Sampling rate                    : 48.0 KHz
Bit depth                        : 16 bits
Compression mode                 : Lossy
Stream size                      : 362 MiB (20%)
Alignment                        : Split accross interleaves
Interleave, duration             : 42 ms (1.00 video frame)
Interleave, preload duration     : 500 ms



Rupert Friend	 ... 	Thomas Anders
Val Kilmer	... 	Dutchman
Andy Garcia	... 	President of Georgia
Dean Cain	... 	Chris Bailot
Emmanuelle Chriqui	... 	Tatia


A drama set centered around the war between Russia and Georgia, and focused on 
an American journalist, his cameraman, and a Georgian native who become caught in the crossfire. 


[img]http://img861.imageshack.us/img861/6731/5d5d.png[/img]
[img]http://img830.imageshack.us/img830/6340/5d55d5d5dd.png[/img]
[img]http://img827.imageshack.us/img827/3329/5d55d5dd.png[/img]
[img]http://img691.imageshack.us/img691/2873/5d55d55dd5d5dd.png[/img]
[img]http://img35.imageshack.us/img35/4724/5d55dd.png[/img]
[img]http://img838.imageshack.us/img838/6508/5d555dd5d5dd.png[/img]
[img]http://img215.imageshack.us/img215/9589/31245139.png[/img]





Greetz

ViSiON,SANTi,MAGNET,THC,T0XiC,iNK,LKRG,IMAGiNE,WBZ,FLAWL3SS,NOVA
D2U,Vik,OneTwo,Rapeseed,SAFC,goldadvance,MEMORY100,KaN1vE,Unevano,Pinnz,Wayne,Mr Hive
and all P2P groups 
Great Work Guys :D

FYS

CM8@hushmail.com		